<svg xmlns="http://www.w3.org/2000/svg" xmlns:xlink="http://www.w3.org/1999/xlink" width="800" height="600" viewBox="0 0 800 600">
  <defs>
    <clipPath id="clip-path">
      <path id="Path_2" data-name="Path 2" d="M14.48,133H34.226V244.246H14.48Zm0,0" transform="translate(-14.48 -133)"/>
    </clipPath>
    <clipPath id="clip-Custom_Size_1">
      <rect width="800" height="600"/>
    </clipPath>
  </defs>
  <g id="Custom_Size_1" data-name="Custom Size – 1" clip-path="url(#clip-Custom_Size_1)">
    <g id="Synth_Main_Logo" data-name="Synth Main Logo" transform="translate(-52.243 -114.187)">
      <g id="Group_1" data-name="Group 1" transform="translate(54.91 309.359)" clip-path="url(#clip-path)">
        <path id="Path_1" data-name="Path 1" d="M22.752,241.435c-3.141-27.015-8.094-54.021-8.22-80.918,1.213-8.963,3.141-18.043,8.22-27.006h1.811c9.669,17.563,9.551,35.371,6.292,53.9-1.693,18.043-3.513,35.969-6.292,54.021Zm0,0" transform="translate(-14.414 -132.326)" fill="#f472b6"/>
      </g>
      <path id="Path_3" data-name="Path 3" d="M35.254,290.449c-2.779-28.463-4.59-56.927-6.283-85.39-3.024-28.835-3.5-57.171,6.41-85.4h1.811c9.787,28.1,9.424,56.447,6.283,85.4-1.693,28.463-3.5,56.927-6.283,85.39Zm0,0" transform="translate(57 158.85)" fill="#a855f7"/>
      <path id="Path_4" data-name="Path 4" d="M47.719,352.243c-2.779-42.152-4.59-84.3-6.283-126.456-3.024-42.4-3.5-84.548,6.4-126.456h1.811c9.913,41.907,9.433,83.942,6.292,126.456-1.693,42.152-3.5,84.3-6.292,126.456Zm0,0" transform="translate(73.424 132.251)" fill="#f472b6"/>
      <path id="Path_5" data-name="Path 5" d="M60.235,405.7c-2.055-40.939-5.2-123.061-6.283-164.008-3.024-54.863-3.5-109.49,6.4-164h1.82c14.865,78.609,5.07,166.426,3.621,246l-3.621,82Zm0,0" transform="translate(89.915 105.115)" fill="#a855f7"/>
      <path id="Path_6" data-name="Path 6" d="M72.7,390.035c-2.055-40.939-5.2-123.187-6.292-164.244C63.4,170.8,62.907,116.174,72.82,61.547h1.811C89.5,140.156,79.71,228.09,78.261,307.795l-3.63,82.122H72.7Zm0,0" transform="translate(106.336 83.837)" fill="#f472b6"/>
      <path id="Path_7" data-name="Path 7" d="M85.218,348.24c-2.779-49.3-4.6-98.6-6.292-147.894-3.015-49.539-3.5-98.716,6.41-147.894h1.811c9.913,49.05,9.433,98.354,6.292,147.894-1.693,49.295-3.513,98.59-6.292,147.894Zm0,0" transform="translate(121.838 71.855)" fill="#a855f7"/>
      <path id="Path_8" data-name="Path 8" d="M97.676,378.659c-2.055-41.065-5.2-123.676-6.283-164.859-3.024-55.107-3.5-110.1,6.41-164.85h1.811c14.865,78.98,5.079,167.277,3.63,247.217l-3.63,82.366Zm0,0" transform="translate(138.063 67.238)" fill="#f472b6"/>
      <path id="Path_9" data-name="Path 9" d="M110.192,405.872c-2.046-44.451-5.2-133.725-6.283-178.177-3.024-59.588-3.5-118.941,6.41-178.168h1.811c14.865,85.39,5.079,180.712,3.63,267.2l-3.63,89.03h-1.937Zm0,0" transform="translate(154.356 68)" fill="#a855f7"/>
      <path id="Path_10" data-name="Path 10" d="M122.657,352.129c-2.779-49.539-4.59-99.079-6.283-148.745-3.024-49.784-3.5-99.323,6.41-148.736h1.811c9.9,49.413,9.424,98.834,6.283,148.736-1.693,49.539-3.5,99.088-6.283,148.745Zm0,0" transform="translate(170.583 74.748)" fill="#f472b6"/>
      <path id="Path_11" data-name="Path 11" d="M135.191,303.286c-2.779-39.608-4.59-79.089-6.41-118.7-3.015-39.852-3.5-79.343,6.41-118.706H137c9.913,39.363,9.424,78.854,6.283,118.706-1.693,39.608-3.5,79.089-6.283,118.7Zm0,0" transform="translate(186.741 89.55)" fill="#a855f7"/>
      <path id="Path_12" data-name="Path 12" d="M147.707,291.245c-2.779-34.52-4.59-69.04-6.41-103.56-3.015-34.882-3.5-69.284,6.41-103.56h1.811c9.913,34.276,9.424,68.678,6.283,103.56-1.693,34.52-3.5,69.04-6.283,103.56Zm0,0" transform="translate(203.034 113.587)" fill="#f472b6"/>
      <path id="Path_13" data-name="Path 13" d="M160.1,277.315c-2.779-28.463-4.6-57.054-6.292-85.517-3.015-28.952-3.5-57.289,6.41-85.517h1.811c9.8,28.228,9.433,56.565,6.283,85.517-1.684,28.463-3.5,57.053-6.283,85.517Zm0,0" transform="translate(219.327 141.516)" fill="#a855f7"/>
      <path id="Path_14" data-name="Path 14" d="M172.7,269.512c-2.779-24.1-4.6-48.208-6.41-72.308-3.141-24.589-3.386-48.571,6.41-72.317h1.811c9.787,23.747,9.424,47.729,6.283,72.317-1.693,24.1-3.5,48.208-6.283,72.308Zm0,0" transform="translate(235.54 165.718)" fill="#f472b6"/>
      <path id="Path_15" data-name="Path 15" d="M185.158,268.41c-2.779-22.045-4.59-43.972-6.4-66.016-3.141-22.524-3.386-44.451,6.4-66.007h1.82c9.787,21.556,9.424,43.483,6.283,66.007-1.693,22.045-3.5,43.972-6.283,66.016Zm0,0" transform="translate(251.766 180.68)" fill="#a855f7"/>
      <path id="Path_16" data-name="Path 16" d="M197.6,247.339c-3.141-26.408-8.094-52.934-8.211-79.216,1.2-8.845,3.141-17.563,8.211-26.408h1.82c9.669,17.083,9.542,34.52,6.283,52.817-1.693,17.563-3.5,35.244-6.283,52.808Zm0,0" transform="translate(268.13 187.693)" fill="#f472b6"/>
      <path id="Path_17" data-name="Path 17" d="M210.072,229.453c-3.141-21.682-8.094-43.609-8.22-65.165,1.213-7.27,3.142-14.539,8.22-21.682h1.811c9.551,13.924,9.551,28.219,6.292,43.365-1.693,14.53-3.513,28.943-6.292,43.483Zm0,0" transform="translate(284.352 188.915)" fill="#a855f7"/>
      <path id="Path_18" data-name="Path 18" d="M222.588,248.368c-3.141-26.77-8.094-53.776-8.22-80.547,1.213-8.963,3.141-17.925,8.22-26.888H224.4c9.669,17.437,9.551,35.127,6.292,53.659-1.693,17.925-3.5,35.851-6.292,53.659h-1.811Zm0,0" transform="translate(300.645 186.672)" fill="#f472b6"/>
      <path id="Path_19" data-name="Path 19" d="M235.052,262.97c-2.779-21.076-4.59-42.034-6.283-63.11-3.141-21.565-3.386-42.514,6.4-63.11h1.82c9.787,20.6,9.424,41.545,6.283,63.11-1.693,21.076-3.5,42.034-6.283,63.11Zm0,0" transform="translate(316.872 181.173)" fill="#a855f7"/>
      <path id="Path_20" data-name="Path 20" d="M247.507,294.873c-2.779-27.612-4.6-55.234-6.292-82.846-3.015-28.1-3.5-55.6,6.41-82.855h1.811c9.8,27.259,9.433,54.872,6.283,82.855-1.684,27.612-3.5,55.234-6.283,82.846Zm0,0" transform="translate(333.108 171.194)" fill="#f472b6"/>
      <path id="Path_21" data-name="Path 21" d="M260.092,286.518c-2.779-27.984-4.6-55.967-6.41-83.824-3.024-28.346-3.5-56.2,6.41-83.815H261.9c9.787,27.612,9.424,55.469,6.283,83.815-1.693,27.984-3.5,55.958-6.283,83.824Zm0,0" transform="translate(349.333 157.849)" fill="#a855f7"/>
      <path id="Path_22" data-name="Path 22" d="M272.548,273.8c-2.779-27.495-4.59-54.989-6.4-82.484-3.024-27.866-3.5-55.234,6.4-82.366h1.82c9.787,27.133,9.424,54.5,6.283,82.366-1.693,27.495-3.5,54.989-6.283,82.484Zm0,0" transform="translate(365.56 144.991)" fill="#f472b6"/>
      <path id="Path_23" data-name="Path 23" d="M285,299.535c-2.779-32.945-4.59-65.772-6.283-98.717-3.024-33.307-3.5-66.134,6.41-98.716h1.811c9.787,32.583,9.424,65.41,6.283,98.716-1.693,32.945-3.5,65.772-6.283,98.717Zm0,0" transform="translate(381.919 136.024)" fill="#a855f7"/>
      <path id="Path_24" data-name="Path 24" d="M297.53,322.2c-2.779-37.308-4.59-74.5-6.4-111.8-3.024-37.553-3.513-74.734,6.4-111.8h1.811c9.913,37.064,9.433,74.246,6.292,111.8-1.693,37.3-3.513,74.49-6.292,111.8Zm0,0" transform="translate(398.078 131.413)" fill="#f472b6"/>
      <path id="Path_25" data-name="Path 25" d="M310.046,288.88c-2.779-31.858-4.59-63.834-6.4-95.693-3.024-32.22-3.513-64.07,6.4-95.684h1.811c9.8,31.614,9.433,63.463,6.292,95.684-1.693,31.858-3.513,63.834-6.292,95.693Zm0,0" transform="translate(413.58 130.091)" fill="#a855f7"/>
      <path id="Path_26" data-name="Path 26" d="M322.454,238.9c-2.779-23.375-4.59-46.878-6.283-70.253-3.141-23.982-3.386-47.24,6.4-70.253h1.811c9.8,23.013,9.433,46.389,6.292,70.253-1.693,23.375-3.5,46.878-6.292,70.253Zm0,0" transform="translate(430.061 131.365)" fill="#f472b6"/>
      <path id="Path_27" data-name="Path 27" d="M335.059,256.32c-2.779-25.793-4.59-51.594-6.41-77.4-3.141-26.282-3.5-51.966,6.41-77.4h1.811c9.8,25.431,9.434,51.115,6.283,77.4-1.693,25.8-3.5,51.6-6.283,77.4Zm0,0" transform="translate(446.463 135.399)" fill="#a855f7"/>
      <path id="Path_28" data-name="Path 28" d="M347.494,275.112c-2.779-27.857-4.6-55.723-6.41-83.579-3.024-28.346-3.5-56.076,6.41-83.579H349.3c9.787,27.5,9.424,55.234,6.283,83.579-1.693,27.857-3.5,55.723-6.283,83.579Zm0,0" transform="translate(462.916 143.694)" fill="#f472b6"/>
      <path id="Path_29" data-name="Path 29" d="M359.954,239.321c-2.779-20.352-4.6-40.577-6.292-60.928-3.141-20.831-3.377-41.056,6.41-60.928h1.811c9.669,19.872,9.433,39.979,6.292,60.928-1.693,20.352-3.513,40.577-6.292,60.928Zm0,0" transform="translate(479.463 156.16)" fill="#a855f7"/>
      <g id="Group_4" data-name="Group 4" transform="translate(69.617 529.855)">
        <g id="Group_3" data-name="Group 3" transform="translate(0 0)">
          <g id="Group_2" data-name="Group 2" transform="translate(0)">
            <path id="Path_30" data-name="Path 30" d="M55.082,105.535q-17.423,0-29.984-9.162Q12.523,87.18,2.609,68.779l14.739-8.945Q25.089,74.107,34.3,81.381q9.194,7.252,19.338,7.243a33.612,33.612,0,0,0,16.3-3.983A30.725,30.725,0,0,0,81.554,73.849,27.24,27.24,0,0,0,85.79,59.11,26.726,26.726,0,0,0,81.3,44.263,69.128,69.128,0,0,0,68.372,30Q59.925,22.608,38.895,5.66A122.164,122.164,0,0,1,24.229-7.63,42.094,42.094,0,0,1,16.37-20.087a43.519,43.519,0,0,1-2.644-16.079A40.146,40.146,0,0,1,19.267-57.1,38.8,38.8,0,0,1,34.513-71.582,44.236,44.236,0,0,1,55.806-76.8q14.517,0,25.023,7.387,10.538,7.36,20.46,20.895l-14.051,10.9a113.973,113.973,0,0,0-9.922-11.624,36.135,36.135,0,0,0-9.777-6.989,27.271,27.271,0,0,0-12.2-2.68,24.978,24.978,0,0,0-12.6,3.042,20.523,20.523,0,0,0-8.075,8.112A22.162,22.162,0,0,0,31.869-36.89a26.88,26.88,0,0,0,4.816,15.354A58.682,58.682,0,0,0,50.736-7.63Q70.074,6.384,80.576,15.582A84.014,84.014,0,0,1,97.523,35.427a45.035,45.035,0,0,1,0,46.316,48.772,48.772,0,0,1-42.442,23.792Zm0,0" transform="translate(-2.609 76.797)" fill="#fff"/>
          </g>
        </g>
      </g>
      <g id="Group_7" data-name="Group 7" transform="translate(205.031 534.201)">
        <g id="Group_6" data-name="Group 6" transform="translate(0 0)">
          <g id="Group_5" data-name="Group 5">
            <path id="Path_31" data-name="Path 31" d="M57.439,15.755,1.563-74.922H21.624L66.13-3.329l43.781-71.593h20.062L74.857,15.755V98.719H57.439Zm0,0" transform="translate(-1.563 74.922)" fill="#fff"/>
          </g>
        </g>
      </g>
      <g id="Group_10" data-name="Group 10" transform="translate(377.97 534.201)">
        <g id="Group_9" data-name="Group 9" transform="translate(0 0)">
          <g id="Group_8" data-name="Group 8">
            <path id="Path_32" data-name="Path 32" d="M127.82-74.922h17.418V98.719h-3.875L26.5-32.589V98.719H9.078V-74.922H12.7L127.82,58.088Zm0,0" transform="translate(-9.078 74.922)" fill="#fff"/>
          </g>
        </g>
      </g>
      <g id="Group_13" data-name="Group 13" transform="translate(558.83 534.201)">
        <g id="Group_12" data-name="Group 12" transform="translate(0 0)">
          <g id="Group_11" data-name="Group 11">
            <path id="Path_33" data-name="Path 33" d="M40.854-57.974H1.672V-74.922H96.948v16.948H58.236V98.719H40.854Zm0,0" transform="translate(-1.672 74.922)" fill="#fff"/>
          </g>
        </g>
      </g>
      <g id="Group_16" data-name="Group 16" transform="translate(698.796 534.201)">
        <g id="Group_15" data-name="Group 15" transform="translate(0 0)">
          <g id="Group_14" data-name="Group 14">
            <path id="Path_34" data-name="Path 34" d="M9.078-74.922H26.5V-2.134H115V-74.922h17.418V98.719H115V14.814H26.5V98.719H9.078Zm0,0" transform="translate(-9.078 74.922)" fill="#fff"/>
          </g>
        </g>
      </g>
    </g>
  </g>
</svg>
